M48
; DRILL file {KiCad (6.0.2)} date Thu Jun  2 11:56:45 2022
; FORMAT={-:-/ absolute / inch / decimal}
; #@! TF.CreationDate,2022-06-02T11:56:45+02:00
; #@! TF.GenerationSoftware,Kicad,Pcbnew,(6.0.2)
; #@! TF.FileFunction,Plated,1,2,PTH
FMAT,2
INCH
; #@! TA.AperFunction,Plated,PTH,ViaDrill
T1C0.0157
; #@! TA.AperFunction,Plated,PTH,ComponentDrill
T2C0.0315
; #@! TA.AperFunction,Plated,PTH,ComponentDrill
T3C0.0354
; #@! TA.AperFunction,Plated,PTH,ComponentDrill
T4C0.0394
; #@! TA.AperFunction,Plated,PTH,ComponentDrill
T5C0.0787
%
G90
G05
T1
X3.7008Y-2.0472
X3.7008Y-3.937
X3.8583Y-1.6929
X3.8583Y-3.7008
X3.8976Y-3.8583
X3.937Y-1.9685
X3.9764Y-3.3071
X3.9764Y-3.3858
X3.9764Y-3.4646
X3.9764Y-4.4882
X4.0154Y-4.6066
X4.0157Y-3.189
X4.0157Y-3.3465
X4.0157Y-3.4646
X4.0157Y-3.5039
X4.0551Y-2.8346
X4.0551Y-2.9134
X4.0551Y-4.2126
X4.0551Y-4.8031
X4.0945Y-3.0709
X4.0945Y-3.9764
X4.0945Y-4.4094
X4.1339Y-2.6772
X4.1339Y-3.0709
X4.1339Y-3.2283
X4.1339Y-3.4646
X4.1339Y-3.7795
X4.1732Y-3.4646
X4.1732Y-3.5039
X4.2126Y-2.9921
X4.2126Y-3.0709
X4.2126Y-3.5039
X4.252Y-2.8346
X4.252Y-2.9528
X4.2913Y-3.189
X4.2953Y-3.8701
X4.31Y-2.6978
X4.3307Y-3.1102
X4.3307Y-3.3858
X4.3307Y-4.4882
X4.3307Y-4.8031
X4.3317Y-3.2293
X4.3396Y-3.6762
X4.3701Y-3.1102
X4.3701Y-3.2677
X4.371Y-3.2283
X4.3944Y-3.379
X4.4303Y-3.3952
X4.4488Y-3.1496
X4.4488Y-3.2677
X4.4488Y-4.4882
X4.4742Y-3.3988
X4.5241Y-3.153
X4.5276Y-3.3465
X4.5276Y-3.6614
X4.565Y-3.1506
X4.5669Y-3.2283
X4.5669Y-3.3858
X4.5741Y-3.6542
X4.6053Y-3.1102
X4.6053Y-3.1496
X4.6063Y-3.622
X4.6457Y-3.5827
X4.685Y-3.5433
X4.685Y-4.4882
X4.7244Y-3.0709
X4.7638Y-2.0472
X4.7638Y-3.1102
X4.7638Y-3.2283
X4.7638Y-3.3071
X4.7638Y-3.8976
X4.7638Y-4.3307
X4.8031Y-3.189
X4.8031Y-3.937
X4.8425Y-3.9764
X4.9606Y-3.937
T2
X3.7008Y-1.6929
X3.8008Y-1.6929
X4.1339Y-2.126
X4.1339Y-4.0945
X4.2126Y-2.126
X4.2126Y-4.0945
X4.2913Y-2.126
X4.2913Y-4.0945
X4.3701Y-2.126
X4.3701Y-4.0945
X4.4488Y-2.126
X4.4488Y-4.0945
X4.5276Y-2.126
X4.5276Y-4.0945
X4.6063Y-2.126
X4.6063Y-4.0945
T3
X4.2913Y-1.6929
X4.3913Y-1.6929
T4
X3.7795Y-2.9921
X3.7795Y-3.0921
X3.7795Y-3.1921
X3.7795Y-3.2921
X3.7795Y-3.3921
X3.7795Y-3.4921
X3.7795Y-3.5921
X3.8795Y-2.9921
X3.8795Y-3.0921
X3.8795Y-3.1921
X3.8795Y-3.2921
X3.8795Y-3.3921
X3.8795Y-3.4921
X3.8795Y-3.5921
T5
X3.7008Y-4.7244
X5.0394Y-4.7244
T0
M30
