%TF.GenerationSoftware,KiCad,Pcbnew,(6.0.2)*%
%TF.CreationDate,2022-06-02T11:54:08+02:00*%
%TF.ProjectId,Ctrl_AA,4374726c-5f41-4412-9e6b-696361645f70,rev?*%
%TF.SameCoordinates,Original*%
%TF.FileFunction,Legend,Top*%
%TF.FilePolarity,Positive*%
%FSLAX46Y46*%
G04 Gerber Fmt 4.6, Leading zero omitted, Abs format (unit mm)*
G04 Created by KiCad (PCBNEW (6.0.2)) date 2022-06-02 11:54:08*
%MOMM*%
%LPD*%
G01*
G04 APERTURE LIST*
%ADD10C,0.300000*%
%ADD11C,0.150000*%
%ADD12C,0.200000*%
G04 APERTURE END LIST*
D10*
X127428571Y-126107142D02*
X128571428Y-126107142D01*
X128000000Y-126678571D02*
X128000000Y-125535714D01*
X99035714Y-127535714D02*
X98964285Y-127607142D01*
X98750000Y-127678571D01*
X98607142Y-127678571D01*
X98392857Y-127607142D01*
X98250000Y-127464285D01*
X98178571Y-127321428D01*
X98107142Y-127035714D01*
X98107142Y-126821428D01*
X98178571Y-126535714D01*
X98250000Y-126392857D01*
X98392857Y-126250000D01*
X98607142Y-126178571D01*
X98750000Y-126178571D01*
X98964285Y-126250000D01*
X99035714Y-126321428D01*
X99464285Y-126678571D02*
X100035714Y-126678571D01*
X99678571Y-126178571D02*
X99678571Y-127464285D01*
X99750000Y-127607142D01*
X99892857Y-127678571D01*
X100035714Y-127678571D01*
X100535714Y-127678571D02*
X100535714Y-126678571D01*
X100535714Y-126964285D02*
X100607142Y-126821428D01*
X100678571Y-126750000D01*
X100821428Y-126678571D01*
X100964285Y-126678571D01*
X101678571Y-127678571D02*
X101535714Y-127607142D01*
X101464285Y-127464285D01*
X101464285Y-126178571D01*
X101892857Y-127821428D02*
X103035714Y-127821428D01*
X103321428Y-127250000D02*
X104035714Y-127250000D01*
X103178571Y-127678571D02*
X103678571Y-126178571D01*
X104178571Y-127678571D01*
X104607142Y-127250000D02*
X105321428Y-127250000D01*
X104464285Y-127678571D02*
X104964285Y-126178571D01*
X105464285Y-127678571D01*
X105607142Y-127821428D02*
X106750000Y-127821428D01*
X107035714Y-126321428D02*
X107107142Y-126250000D01*
X107250000Y-126178571D01*
X107607142Y-126178571D01*
X107750000Y-126250000D01*
X107821428Y-126321428D01*
X107892857Y-126464285D01*
X107892857Y-126607142D01*
X107821428Y-126821428D01*
X106964285Y-127678571D01*
X107892857Y-127678571D01*
X109321428Y-127678571D02*
X108464285Y-127678571D01*
X108892857Y-127678571D02*
X108892857Y-126178571D01*
X108750000Y-126392857D01*
X108607142Y-126535714D01*
X108464285Y-126607142D01*
X110250000Y-126178571D02*
X110392857Y-126178571D01*
X110535714Y-126250000D01*
X110607142Y-126321428D01*
X110678571Y-126464285D01*
X110750000Y-126750000D01*
X110750000Y-127107142D01*
X110678571Y-127392857D01*
X110607142Y-127535714D01*
X110535714Y-127607142D01*
X110392857Y-127678571D01*
X110250000Y-127678571D01*
X110107142Y-127607142D01*
X110035714Y-127535714D01*
X109964285Y-127392857D01*
X109892857Y-127107142D01*
X109892857Y-126750000D01*
X109964285Y-126464285D01*
X110035714Y-126321428D01*
X110107142Y-126250000D01*
X110250000Y-126178571D01*
X111321428Y-126321428D02*
X111392857Y-126250000D01*
X111535714Y-126178571D01*
X111892857Y-126178571D01*
X112035714Y-126250000D01*
X112107142Y-126321428D01*
X112178571Y-126464285D01*
X112178571Y-126607142D01*
X112107142Y-126821428D01*
X111250000Y-127678571D01*
X112178571Y-127678571D01*
X112750000Y-126321428D02*
X112821428Y-126250000D01*
X112964285Y-126178571D01*
X113321428Y-126178571D01*
X113464285Y-126250000D01*
X113535714Y-126321428D01*
X113607142Y-126464285D01*
X113607142Y-126607142D01*
X113535714Y-126821428D01*
X112678571Y-127678571D01*
X113607142Y-127678571D01*
X114535714Y-126178571D02*
X114678571Y-126178571D01*
X114821428Y-126250000D01*
X114892857Y-126321428D01*
X114964285Y-126464285D01*
X115035714Y-126750000D01*
X115035714Y-127107142D01*
X114964285Y-127392857D01*
X114892857Y-127535714D01*
X114821428Y-127607142D01*
X114678571Y-127678571D01*
X114535714Y-127678571D01*
X114392857Y-127607142D01*
X114321428Y-127535714D01*
X114250000Y-127392857D01*
X114178571Y-127107142D01*
X114178571Y-126750000D01*
X114250000Y-126464285D01*
X114321428Y-126321428D01*
X114392857Y-126250000D01*
X114535714Y-126178571D01*
X115607142Y-126321428D02*
X115678571Y-126250000D01*
X115821428Y-126178571D01*
X116178571Y-126178571D01*
X116321428Y-126250000D01*
X116392857Y-126321428D01*
X116464285Y-126464285D01*
X116464285Y-126607142D01*
X116392857Y-126821428D01*
X115535714Y-127678571D01*
X116464285Y-127678571D01*
X117035714Y-126321428D02*
X117107142Y-126250000D01*
X117250000Y-126178571D01*
X117607142Y-126178571D01*
X117750000Y-126250000D01*
X117821428Y-126321428D01*
X117892857Y-126464285D01*
X117892857Y-126607142D01*
X117821428Y-126821428D01*
X116964285Y-127678571D01*
X117892857Y-127678571D01*
X118178571Y-127821428D02*
X119321428Y-127821428D01*
X119464285Y-126178571D02*
X119964285Y-127678571D01*
X120464285Y-126178571D01*
X121250000Y-126178571D02*
X121392857Y-126178571D01*
X121535714Y-126250000D01*
X121607142Y-126321428D01*
X121678571Y-126464285D01*
X121750000Y-126750000D01*
X121750000Y-127107142D01*
X121678571Y-127392857D01*
X121607142Y-127535714D01*
X121535714Y-127607142D01*
X121392857Y-127678571D01*
X121250000Y-127678571D01*
X121107142Y-127607142D01*
X121035714Y-127535714D01*
X120964285Y-127392857D01*
X120892857Y-127107142D01*
X120892857Y-126750000D01*
X120964285Y-126464285D01*
X121035714Y-126321428D01*
X121107142Y-126250000D01*
X121250000Y-126178571D01*
X122392857Y-127535714D02*
X122464285Y-127607142D01*
X122392857Y-127678571D01*
X122321428Y-127607142D01*
X122392857Y-127535714D01*
X122392857Y-127678571D01*
X123392857Y-126178571D02*
X123535714Y-126178571D01*
X123678571Y-126250000D01*
X123750000Y-126321428D01*
X123821428Y-126464285D01*
X123892857Y-126750000D01*
X123892857Y-127107142D01*
X123821428Y-127392857D01*
X123750000Y-127535714D01*
X123678571Y-127607142D01*
X123535714Y-127678571D01*
X123392857Y-127678571D01*
X123250000Y-127607142D01*
X123178571Y-127535714D01*
X123107142Y-127392857D01*
X123035714Y-127107142D01*
X123035714Y-126750000D01*
X123107142Y-126464285D01*
X123178571Y-126321428D01*
X123250000Y-126250000D01*
X123392857Y-126178571D01*
X93428571Y-126107142D02*
X94571428Y-126107142D01*
D11*
%TO.C,J2*%
X127666666Y-113552380D02*
X127666666Y-114266666D01*
X127619047Y-114409523D01*
X127523809Y-114504761D01*
X127380952Y-114552380D01*
X127285714Y-114552380D01*
X128095238Y-113647619D02*
X128142857Y-113600000D01*
X128238095Y-113552380D01*
X128476190Y-113552380D01*
X128571428Y-113600000D01*
X128619047Y-113647619D01*
X128666666Y-113742857D01*
X128666666Y-113838095D01*
X128619047Y-113980952D01*
X128047619Y-114552380D01*
X128666666Y-114552380D01*
%TO.C,LCD1*%
X109833333Y-51452380D02*
X109357142Y-51452380D01*
X109357142Y-50452380D01*
X110738095Y-51357142D02*
X110690476Y-51404761D01*
X110547619Y-51452380D01*
X110452380Y-51452380D01*
X110309523Y-51404761D01*
X110214285Y-51309523D01*
X110166666Y-51214285D01*
X110119047Y-51023809D01*
X110119047Y-50880952D01*
X110166666Y-50690476D01*
X110214285Y-50595238D01*
X110309523Y-50500000D01*
X110452380Y-50452380D01*
X110547619Y-50452380D01*
X110690476Y-50500000D01*
X110738095Y-50547619D01*
X111166666Y-51452380D02*
X111166666Y-50452380D01*
X111404761Y-50452380D01*
X111547619Y-50500000D01*
X111642857Y-50595238D01*
X111690476Y-50690476D01*
X111738095Y-50880952D01*
X111738095Y-51023809D01*
X111690476Y-51214285D01*
X111642857Y-51309523D01*
X111547619Y-51404761D01*
X111404761Y-51452380D01*
X111166666Y-51452380D01*
X112690476Y-51452380D02*
X112119047Y-51452380D01*
X112404761Y-51452380D02*
X112404761Y-50452380D01*
X112309523Y-50595238D01*
X112214285Y-50690476D01*
X112119047Y-50738095D01*
D12*
X105285714Y-57452380D02*
X104714285Y-57452380D01*
X105000000Y-57452380D02*
X105000000Y-56452380D01*
X104904761Y-56595238D01*
X104809523Y-56690476D01*
X104714285Y-56738095D01*
D11*
%TO.C,J1*%
X93666666Y-113552380D02*
X93666666Y-114266666D01*
X93619047Y-114409523D01*
X93523809Y-114504761D01*
X93380952Y-114552380D01*
X93285714Y-114552380D01*
X94666666Y-114552380D02*
X94095238Y-114552380D01*
X94380952Y-114552380D02*
X94380952Y-113552380D01*
X94285714Y-113695238D01*
X94190476Y-113790476D01*
X94095238Y-113838095D01*
D10*
%TO.C,LCD1*%
X98000000Y-102000000D02*
X98000000Y-97000000D01*
X98000000Y-56000000D02*
X123000000Y-56000000D01*
X123000000Y-56000000D02*
X123000000Y-102000000D01*
X123000000Y-102000000D02*
X98000000Y-102000000D01*
X98000000Y-56000000D02*
X98000000Y-61000000D01*
%TD*%
M02*
