%TF.GenerationSoftware,KiCad,Pcbnew,(6.0.2)*%
%TF.CreationDate,2022-06-02T11:54:08+02:00*%
%TF.ProjectId,Ctrl_AA,4374726c-5f41-4412-9e6b-696361645f70,rev?*%
%TF.SameCoordinates,Original*%
%TF.FileFunction,Paste,Bot*%
%TF.FilePolarity,Positive*%
%FSLAX46Y46*%
G04 Gerber Fmt 4.6, Leading zero omitted, Abs format (unit mm)*
G04 Created by KiCad (PCBNEW (6.0.2)) date 2022-06-02 11:54:08*
%MOMM*%
%LPD*%
G01*
G04 APERTURE LIST*
G04 Aperture macros list*
%AMRoundRect*
0 Rectangle with rounded corners*
0 $1 Rounding radius*
0 $2 $3 $4 $5 $6 $7 $8 $9 X,Y pos of 4 corners*
0 Add a 4 corners polygon primitive as box body*
4,1,4,$2,$3,$4,$5,$6,$7,$8,$9,$2,$3,0*
0 Add four circle primitives for the rounded corners*
1,1,$1+$1,$2,$3*
1,1,$1+$1,$4,$5*
1,1,$1+$1,$6,$7*
1,1,$1+$1,$8,$9*
0 Add four rect primitives between the rounded corners*
20,1,$1+$1,$2,$3,$4,$5,0*
20,1,$1+$1,$4,$5,$6,$7,0*
20,1,$1+$1,$6,$7,$8,$9,0*
20,1,$1+$1,$8,$9,$2,$3,0*%
G04 Aperture macros list end*
%ADD10RoundRect,0.250000X0.450000X-0.350000X0.450000X0.350000X-0.450000X0.350000X-0.450000X-0.350000X0*%
%ADD11RoundRect,0.250000X0.475000X-0.337500X0.475000X0.337500X-0.475000X0.337500X-0.475000X-0.337500X0*%
%ADD12R,1.200000X0.900000*%
%ADD13RoundRect,0.250000X0.337500X0.475000X-0.337500X0.475000X-0.337500X-0.475000X0.337500X-0.475000X0*%
%ADD14R,0.600000X1.100000*%
%ADD15R,1.500000X2.400000*%
%ADD16RoundRect,0.250000X-0.350000X-0.450000X0.350000X-0.450000X0.350000X0.450000X-0.350000X0.450000X0*%
%ADD17RoundRect,0.250000X-0.337500X-0.475000X0.337500X-0.475000X0.337500X0.475000X-0.337500X0.475000X0*%
%ADD18RoundRect,0.150000X0.825000X0.150000X-0.825000X0.150000X-0.825000X-0.150000X0.825000X-0.150000X0*%
%ADD19RoundRect,0.250000X-0.450000X0.350000X-0.450000X-0.350000X0.450000X-0.350000X0.450000X0.350000X0*%
%ADD20R,0.800000X1.900000*%
%ADD21RoundRect,0.075000X-0.075000X0.700000X-0.075000X-0.700000X0.075000X-0.700000X0.075000X0.700000X0*%
%ADD22RoundRect,0.075000X-0.700000X0.075000X-0.700000X-0.075000X0.700000X-0.075000X0.700000X0.075000X0*%
%ADD23RoundRect,0.250000X0.350000X0.450000X-0.350000X0.450000X-0.350000X-0.450000X0.350000X-0.450000X0*%
%ADD24RoundRect,0.200000X-0.200000X-0.600000X0.200000X-0.600000X0.200000X0.600000X-0.200000X0.600000X0*%
%ADD25RoundRect,0.250001X-0.799999X-1.249999X0.799999X-1.249999X0.799999X1.249999X-0.799999X1.249999X0*%
%ADD26RoundRect,0.250000X-1.250000X-0.550000X1.250000X-0.550000X1.250000X0.550000X-1.250000X0.550000X0*%
G04 APERTURE END LIST*
D10*
%TO.C,R16*%
X106000000Y-112000000D03*
X106000000Y-110000000D03*
%TD*%
D11*
%TO.C,C2*%
X105000000Y-74037500D03*
X105000000Y-71962500D03*
%TD*%
D10*
%TO.C,R12*%
X118000000Y-112000000D03*
X118000000Y-110000000D03*
%TD*%
D12*
%TO.C,D2*%
X122000000Y-116350000D03*
X122000000Y-119650000D03*
%TD*%
D13*
%TO.C,C5*%
X108000000Y-70000000D03*
X105925000Y-70000000D03*
%TD*%
D10*
%TO.C,R14*%
X112000000Y-112000000D03*
X112000000Y-110000000D03*
%TD*%
%TO.C,R15*%
X109000000Y-112000000D03*
X109000000Y-110000000D03*
%TD*%
D14*
%TO.C,Y1*%
X112500000Y-74125000D03*
X113500000Y-74125000D03*
D15*
X113000000Y-68525000D03*
%TD*%
D16*
%TO.C,R2*%
X94000000Y-49000000D03*
X96000000Y-49000000D03*
%TD*%
D17*
%TO.C,C1*%
X93962500Y-47000000D03*
X96037500Y-47000000D03*
%TD*%
D18*
%TO.C,U2*%
X99475000Y-105095000D03*
X99475000Y-106365000D03*
X99475000Y-107635000D03*
X99475000Y-108905000D03*
X94525000Y-108905000D03*
X94525000Y-107635000D03*
X94525000Y-106365000D03*
X94525000Y-105095000D03*
%TD*%
D19*
%TO.C,R3*%
X107000000Y-72000000D03*
X107000000Y-74000000D03*
%TD*%
D11*
%TO.C,C3*%
X116000000Y-74037500D03*
X116000000Y-71962500D03*
%TD*%
D19*
%TO.C,R7*%
X109000000Y-95000000D03*
X109000000Y-97000000D03*
%TD*%
D10*
%TO.C,R10*%
X104000000Y-81000000D03*
X104000000Y-79000000D03*
%TD*%
D20*
%TO.C,Q1*%
X120900000Y-48000000D03*
X119000000Y-48000000D03*
X119950000Y-45000000D03*
%TD*%
D21*
%TO.C,U1*%
X108925000Y-77075000D03*
X109425000Y-77075000D03*
X109925000Y-77075000D03*
X110425000Y-77075000D03*
X110925000Y-77075000D03*
X111425000Y-77075000D03*
X111925000Y-77075000D03*
X112425000Y-77075000D03*
X112925000Y-77075000D03*
X113425000Y-77075000D03*
X113925000Y-77075000D03*
X114425000Y-77075000D03*
X114925000Y-77075000D03*
X115425000Y-77075000D03*
X115925000Y-77075000D03*
X116425000Y-77075000D03*
D22*
X118350000Y-79000000D03*
X118350000Y-79500000D03*
X118350000Y-80000000D03*
X118350000Y-80500000D03*
X118350000Y-81000000D03*
X118350000Y-81500000D03*
X118350000Y-82000000D03*
X118350000Y-82500000D03*
X118350000Y-83000000D03*
X118350000Y-83500000D03*
X118350000Y-84000000D03*
X118350000Y-84500000D03*
X118350000Y-85000000D03*
X118350000Y-85500000D03*
X118350000Y-86000000D03*
X118350000Y-86500000D03*
D21*
X116425000Y-88425000D03*
X115925000Y-88425000D03*
X115425000Y-88425000D03*
X114925000Y-88425000D03*
X114425000Y-88425000D03*
X113925000Y-88425000D03*
X113425000Y-88425000D03*
X112925000Y-88425000D03*
X112425000Y-88425000D03*
X111925000Y-88425000D03*
X111425000Y-88425000D03*
X110925000Y-88425000D03*
X110425000Y-88425000D03*
X109925000Y-88425000D03*
X109425000Y-88425000D03*
X108925000Y-88425000D03*
D22*
X107000000Y-86500000D03*
X107000000Y-86000000D03*
X107000000Y-85500000D03*
X107000000Y-85000000D03*
X107000000Y-84500000D03*
X107000000Y-84000000D03*
X107000000Y-83500000D03*
X107000000Y-83000000D03*
X107000000Y-82500000D03*
X107000000Y-82000000D03*
X107000000Y-81500000D03*
X107000000Y-81000000D03*
X107000000Y-80500000D03*
X107000000Y-80000000D03*
X107000000Y-79500000D03*
X107000000Y-79000000D03*
%TD*%
D19*
%TO.C,R4*%
X113000000Y-95000000D03*
X113000000Y-97000000D03*
%TD*%
D23*
%TO.C,R1*%
X114000000Y-46000000D03*
X112000000Y-46000000D03*
%TD*%
D11*
%TO.C,C4*%
X110000000Y-74075000D03*
X110000000Y-72000000D03*
%TD*%
D10*
%TO.C,R13*%
X115000000Y-112000000D03*
X115000000Y-110000000D03*
%TD*%
D19*
%TO.C,R9*%
X104000000Y-83000000D03*
X104000000Y-85000000D03*
%TD*%
D24*
%TO.C,J4*%
X107875000Y-119400000D03*
X109125000Y-119400000D03*
X110375000Y-119400000D03*
X111625000Y-119400000D03*
X112875000Y-119400000D03*
X114125000Y-119400000D03*
D25*
X116675000Y-116500000D03*
X105325000Y-116500000D03*
%TD*%
D19*
%TO.C,R8*%
X107000000Y-95000000D03*
X107000000Y-97000000D03*
%TD*%
D23*
%TO.C,R11*%
X96000000Y-103000000D03*
X94000000Y-103000000D03*
%TD*%
D10*
%TO.C,R5*%
X115000000Y-97000000D03*
X115000000Y-95000000D03*
%TD*%
D19*
%TO.C,R6*%
X111000000Y-95000000D03*
X111000000Y-97000000D03*
%TD*%
D26*
%TO.C,C6*%
X123800000Y-110000000D03*
X128200000Y-110000000D03*
%TD*%
M02*
